<svg xmlns="http://www.w3.org/2000/svg" xmlns:xlink="http://www.w3.org/1999/xlink" width="500" zoomAndPan="magnify" viewBox="0 0 375 374.999991" height="500" preserveAspectRatio="xMidYMid meet" version="1.0"><defs><clipPath id="6fdba2b4e2"><path d="M 113 184 L 262.5 184 L 262.5 187.4375 L 113 187.4375 Z M 113 184 " clip-rule="nonzero"/></clipPath><clipPath id="80b19cf111"><path d="M 202 130.4375 L 247 130.4375 L 247 186 L 202 186 Z M 202 130.4375 " clip-rule="nonzero"/></clipPath></defs><g clip-path="url(#6fdba2b4e2)"><path fill="#000000" d="M 260.972656 187.433594 L 114.882812 187.433594 C 114.027344 187.433594 113.308594 186.714844 113.308594 185.863281 C 113.308594 185.011719 114.027344 184.292969 114.882812 184.292969 L 260.925781 184.292969 C 261.78125 184.292969 262.5 185.011719 262.5 185.863281 C 262.5 186.714844 261.824219 187.433594 260.972656 187.433594 Z M 260.972656 187.433594 " fill-opacity="1" fill-rule="nonzero"/></g><path fill="#000000" d="M 140.890625 167.914062 C 141.070312 169.527344 142.195312 170.785156 143.722656 171.324219 C 145.519531 171.953125 147.449219 173.792969 149.472656 176.753906 C 150.191406 177.785156 152.257812 181.152344 155.132812 185.820312 L 167.261719 185.820312 L 164.164062 177.875 C 163.21875 175.765625 161.375 174.105469 159.128906 173.296875 C 148.078125 169.394531 146.460938 162.214844 144.574219 153.910156 C 144.171875 152.207031 143.765625 150.410156 143.273438 148.660156 C 142.328125 145.292969 139.589844 142.0625 136.128906 140.222656 C 133.253906 138.742188 130.246094 138.382812 127.683594 139.28125 C 127.234375 139.414062 126.832031 139.640625 126.425781 139.863281 C 126.425781 139.863281 118.96875 133.941406 114.972656 137.53125 C 112.5 139.773438 116.140625 139.640625 117.667969 139.59375 C 117.847656 139.59375 117.980469 139.59375 118.070312 139.59375 C 119.777344 139.683594 122.878906 142.828125 122.113281 144.667969 C 120.855469 147.671875 121.214844 151.171875 123.238281 153.867188 C 125.394531 156.738281 128.898438 158.667969 133.929688 159.746094 C 139.050781 160.824219 140.53125 164.773438 140.890625 167.914062 Z M 158.726562 179.535156 C 159.355469 179.3125 160.074219 179.625 160.34375 180.300781 C 160.566406 180.925781 160.253906 181.644531 159.578125 181.914062 C 158.949219 182.140625 158.230469 181.824219 157.960938 181.152344 C 157.738281 180.480469 158.097656 179.761719 158.726562 179.535156 Z M 130.019531 154.136719 C 127.371094 152.296875 124.765625 149.019531 126.246094 145.519531 C 126.472656 144.9375 126.832031 144.488281 127.234375 144.171875 C 129.886719 141.882812 134.378906 142.917969 136.578125 144.890625 C 138.601562 146.730469 140.710938 150.140625 139.949219 153.011719 C 138.691406 157.5 132.851562 156.109375 130.019531 154.136719 Z M 130.019531 154.136719 " fill-opacity="1" fill-rule="nonzero"/><path fill="#000000" d="M 162.09375 174.105469 C 162.09375 174.0625 162.09375 174.0625 162.09375 174.015625 C 161.464844 170.472656 161.601562 167.824219 162.5 166.117188 C 163.21875 164.683594 163.128906 162.976562 162.183594 161.71875 C 160.296875 159.207031 158.636719 155.300781 161.511719 151.082031 C 164.386719 146.820312 165.601562 143.007812 165.152344 139.414062 C 164.613281 134.839844 160.792969 131.382812 156.121094 131.160156 C 154.59375 131.070312 153.15625 131.335938 151.851562 131.964844 C 149.382812 133.089844 147.449219 135.421875 146.417969 138.472656 C 145.832031 140.222656 145.5625 142.109375 145.652344 143.902344 C 142.597656 144.171875 143.226562 146.640625 143.945312 147.71875 C 144.753906 148.886719 147.089844 149.46875 147.089844 149.46875 C 147.945312 151.082031 148.886719 152.65625 149.832031 154.179688 C 153.066406 159.519531 155.941406 164.324219 155.222656 170.652344 C 156.839844 171.1875 160.207031 172.535156 162.09375 174.105469 Z M 149.425781 142.601562 C 149.425781 142.0625 149.472656 141.523438 149.5625 141.03125 C 150.101562 138.25 152.886719 134.882812 156.03125 135.199219 C 163.175781 135.914062 161.734375 150.949219 154.953125 150.769531 C 151.042969 150.636719 149.425781 145.789062 149.425781 142.601562 Z M 149.425781 142.601562 " fill-opacity="1" fill-rule="nonzero"/><g clip-path="url(#80b19cf111)"><path fill="#000000" d="M 202.390625 178.59375 L 217.21875 185.820312 L 224.765625 185.820312 L 246.058594 142.242188 C 246.777344 140.808594 246.191406 139.101562 244.800781 138.382812 L 242.195312 137.304688 L 226.15625 130.621094 C 225.707031 130.441406 225.167969 130.664062 224.988281 131.113281 C 224.808594 131.5625 225.035156 132.054688 225.484375 132.234375 L 240.398438 139.503906 C 240.757812 139.683594 240.890625 140.089844 240.710938 140.449219 L 240.621094 140.628906 C 240.441406 140.988281 240.039062 141.121094 239.722656 140.941406 L 224.898438 134.074219 C 224.269531 133.804688 223.640625 133.804688 223.507812 134.121094 C 223.371094 134.433594 223.730469 134.929688 224.316406 135.242188 L 238.824219 142.691406 C 239.140625 142.871094 239.273438 143.273438 239.140625 143.589844 C 238.960938 143.949219 238.554688 144.082031 238.242188 143.902344 L 223.460938 137.039062 C 222.832031 136.769531 222.203125 136.769531 222.070312 137.082031 C 221.933594 137.394531 222.292969 137.890625 222.878906 138.203125 L 237.433594 145.652344 C 237.746094 145.832031 237.882812 146.238281 237.746094 146.550781 C 237.566406 146.910156 237.164062 147.046875 236.847656 146.867188 L 222.023438 140 C 221.394531 139.730469 220.765625 139.730469 220.632812 140.042969 C 220.496094 140.359375 220.855469 140.851562 221.441406 141.167969 L 235.996094 148.617188 C 236.308594 148.796875 236.445312 149.199219 236.308594 149.511719 C 236.128906 149.871094 235.726562 150.007812 235.410156 149.828125 L 220.585938 142.960938 C 219.957031 142.691406 219.328125 142.691406 219.195312 143.007812 C 219.058594 143.320312 219.417969 143.8125 220.003906 144.128906 L 234.558594 151.578125 C 234.871094 151.757812 235.007812 152.160156 234.871094 152.476562 C 234.691406 152.835938 234.289062 152.96875 233.972656 152.789062 L 219.148438 145.878906 C 218.519531 145.609375 217.890625 145.609375 217.757812 145.921875 C 217.621094 146.238281 217.980469 146.730469 218.566406 147.046875 L 233.121094 154.496094 C 233.433594 154.675781 233.570312 155.078125 233.433594 155.390625 C 233.253906 155.75 232.851562 155.886719 232.535156 155.707031 L 217.667969 148.886719 C 217.039062 148.617188 216.410156 148.617188 216.273438 148.929688 C 216.140625 149.242188 216.5 149.738281 217.082031 150.050781 L 231.683594 157.5 C 231.996094 157.679688 232.132812 158.085938 231.996094 158.398438 C 231.816406 158.757812 231.414062 158.894531 231.097656 158.714844 L 216.230469 151.847656 C 215.601562 151.578125 214.972656 151.578125 214.835938 151.890625 C 214.703125 152.207031 215.0625 152.699219 215.644531 153.011719 L 230.246094 160.464844 C 230.558594 160.644531 230.695312 161.046875 230.558594 161.359375 C 230.378906 161.71875 229.976562 161.855469 229.660156 161.675781 L 214.792969 154.765625 C 214.164062 154.496094 213.535156 154.496094 213.398438 154.808594 C 213.265625 155.121094 213.625 155.617188 214.207031 155.929688 L 228.808594 163.425781 C 229.121094 163.605469 229.257812 164.007812 229.121094 164.324219 C 228.941406 164.683594 228.539062 164.816406 228.222656 164.636719 L 213.355469 157.726562 C 212.722656 157.457031 212.09375 157.457031 211.960938 157.769531 C 211.824219 158.085938 212.183594 158.578125 212.769531 158.894531 L 227.371094 166.386719 C 227.683594 166.566406 227.820312 166.96875 227.683594 167.285156 C 227.503906 167.644531 227.101562 167.777344 226.785156 167.597656 L 211.871094 160.6875 C 211.242188 160.417969 210.613281 160.417969 210.476562 160.734375 C 210.34375 161.046875 210.703125 161.539062 211.285156 161.855469 L 225.933594 169.347656 C 226.246094 169.527344 226.382812 169.933594 226.246094 170.246094 C 226.066406 170.605469 225.664062 170.742188 225.347656 170.5625 L 210.433594 163.695312 C 209.804688 163.425781 209.175781 163.425781 209.039062 163.738281 C 208.90625 164.054688 209.265625 164.546875 209.847656 164.863281 L 224.496094 172.355469 C 224.808594 172.535156 224.945312 172.9375 224.808594 173.253906 C 224.628906 173.613281 224.226562 173.746094 223.910156 173.566406 L 208.996094 166.65625 C 208.367188 166.386719 207.738281 166.386719 207.601562 166.703125 C 207.46875 167.015625 207.828125 167.507812 208.410156 167.824219 L 223.058594 175.316406 C 223.371094 175.496094 223.507812 175.902344 223.371094 176.214844 C 223.191406 176.574219 222.789062 176.710938 222.472656 176.53125 L 207.558594 169.574219 C 206.929688 169.304688 206.300781 169.304688 206.164062 169.617188 C 206.03125 169.933594 206.390625 170.425781 206.972656 170.742188 L 221.664062 178.234375 C 221.980469 178.414062 222.113281 178.816406 221.980469 179.132812 C 221.800781 179.492188 221.394531 179.625 221.082031 179.445312 L 206.121094 172.492188 C 205.492188 172.222656 204.863281 172.222656 204.726562 172.535156 C 204.59375 172.847656 204.953125 173.34375 205.535156 173.65625 L 220.226562 181.152344 C 220.542969 181.332031 220.675781 181.734375 220.542969 182.050781 C 220.363281 182.410156 219.957031 182.542969 219.644531 182.363281 L 204.683594 175.40625 C 204.054688 175.136719 203.425781 175.136719 203.289062 175.453125 C 203.15625 175.765625 203.515625 176.261719 204.097656 176.574219 L 219.148438 184.292969 C 219.285156 184.382812 219.328125 184.519531 219.285156 184.695312 L 219.105469 185.011719 C 219.015625 185.144531 218.878906 185.234375 218.699219 185.144531 L 202.929688 177.472656 C 202.660156 177.335938 202.300781 177.425781 202.167969 177.695312 C 201.988281 178.101562 202.121094 178.460938 202.390625 178.59375 Z M 202.390625 178.59375 " fill-opacity="1" fill-rule="nonzero"/></g><path fill="#000000" d="M 201.492188 180.433594 L 212.589844 185.820312 L 215.195312 185.820312 L 202.03125 179.402344 C 201.761719 179.265625 201.402344 179.355469 201.269531 179.625 C 201.089844 179.894531 201.222656 180.253906 201.492188 180.433594 Z M 201.492188 180.433594 " fill-opacity="1" fill-rule="nonzero"/><path fill="#000000" d="M 198.707031 185.820312 L 201.269531 185.820312 L 199.382812 184.875 C 199.113281 184.742188 198.753906 184.832031 198.617188 185.101562 C 198.4375 185.371094 198.484375 185.640625 198.707031 185.820312 Z M 198.707031 185.820312 " fill-opacity="1" fill-rule="nonzero"/><path fill="#000000" d="M 199.695312 184.070312 L 203.289062 185.820312 L 205.894531 185.820312 L 200.234375 183.082031 C 199.964844 182.945312 199.605469 183.035156 199.472656 183.304688 C 199.292969 183.574219 199.425781 183.933594 199.695312 184.070312 Z M 199.695312 184.070312 " fill-opacity="1" fill-rule="nonzero"/><path fill="#000000" d="M 200.59375 182.230469 L 207.917969 185.820312 L 210.523438 185.820312 L 201.132812 181.242188 C 200.863281 181.105469 200.503906 181.195312 200.371094 181.464844 C 200.191406 181.734375 200.324219 182.09375 200.59375 182.230469 Z M 200.59375 182.230469 " fill-opacity="1" fill-rule="nonzero"/><path fill="#000000" d="M 175.84375 161.089844 C 175.304688 167.195312 174.136719 174.914062 172.742188 182.410156 C 172.5625 183.484375 172.292969 184.652344 171.933594 185.820312 L 178.3125 185.820312 L 178.3125 185.773438 C 178.402344 185.011719 178.492188 184.25 178.539062 183.484375 C 179.03125 177.203125 178.089844 171.1875 176.515625 164.054688 C 176.335938 163.066406 176.113281 162.078125 175.84375 161.089844 Z M 175.84375 161.089844 " fill-opacity="1" fill-rule="nonzero"/><path fill="#000000" d="M 175.976562 152.117188 C 176.921875 151.21875 178.269531 150.546875 179.4375 150.277344 C 179.886719 143.859375 185.320312 140.179688 182.535156 137.890625 C 179.707031 135.554688 174.269531 145.292969 175.753906 150.679688 C 175.796875 151.082031 175.886719 151.578125 175.976562 152.117188 Z M 175.976562 152.117188 " fill-opacity="1" fill-rule="nonzero"/><path fill="#000000" d="M 195.5625 176.84375 C 194.304688 168.496094 190.308594 158.9375 186.894531 154.71875 C 185.320312 152.789062 182.851562 150.859375 180.109375 151.082031 C 179.886719 151.082031 179.660156 151.128906 179.390625 151.21875 C 178.132812 151.53125 176.742188 152.339844 176.066406 153.371094 C 176.023438 153.460938 175.933594 153.550781 175.886719 153.640625 C 175.347656 154.765625 175.394531 155.660156 175.664062 156.785156 C 175.753906 157.097656 175.796875 157.410156 175.886719 157.769531 L 175.976562 158.039062 C 175.976562 158.085938 176.023438 158.128906 176.023438 158.21875 C 176.066406 158.355469 176.066406 158.445312 176.113281 158.578125 C 178.492188 165.128906 181.414062 178.414062 180.425781 185.863281 L 195.878906 185.863281 C 195.921875 183.082031 196.011719 179.714844 195.5625 176.84375 Z M 180.875 159.65625 C 180.828125 159.65625 180.785156 159.699219 180.738281 159.699219 C 179.796875 159.878906 178.898438 159.25 178.71875 158.308594 C 178.539062 157.367188 179.167969 156.46875 180.109375 156.289062 C 180.15625 156.289062 180.199219 156.289062 180.246094 156.289062 C 181.144531 156.199219 181.953125 156.785156 182.132812 157.679688 C 182.265625 158.578125 181.726562 159.429688 180.875 159.65625 Z M 180.875 159.65625 " fill-opacity="1" fill-rule="nonzero"/></svg>