<svg xmlns="http://www.w3.org/2000/svg" xmlns:xlink="http://www.w3.org/1999/xlink" width="500" zoomAndPan="magnify" viewBox="0 0 375 374.999991" height="500" preserveAspectRatio="xMidYMid meet" version="1.0"><defs><g/><clipPath id="8568309ff5"><path d="M 2 208 L 375 208 L 375 215.875 L 2 215.875 Z M 2 208 " clip-rule="nonzero"/></clipPath><clipPath id="278556d0e1"><path d="M 223 73.375 L 335 73.375 L 335 212 L 223 212 Z M 223 73.375 " clip-rule="nonzero"/></clipPath></defs><g clip-path="url(#8568309ff5)"><path fill="#000000" d="M 371.179688 215.863281 L 5.953125 215.863281 C 3.820312 215.863281 2.023438 214.070312 2.023438 211.9375 C 2.023438 209.808594 3.820312 208.011719 5.953125 208.011719 L 371.070312 208.011719 C 373.203125 208.011719 375 209.808594 375 211.9375 C 375 214.070312 373.316406 215.863281 371.179688 215.863281 Z M 371.179688 215.863281 " fill-opacity="1" fill-rule="nonzero"/></g><path fill="#000000" d="M 70.980469 167.0625 C 71.429688 171.101562 74.234375 174.242188 78.054688 175.589844 C 82.546875 177.160156 87.375 181.757812 92.429688 189.164062 C 94.226562 191.746094 99.394531 200.160156 106.582031 211.828125 L 136.90625 211.828125 L 129.15625 191.96875 C 126.796875 186.695312 122.191406 182.546875 116.578125 180.527344 C 88.949219 170.765625 84.90625 152.816406 80.1875 132.058594 C 79.179688 127.796875 78.167969 123.308594 76.933594 118.933594 C 74.574219 110.519531 67.722656 102.441406 59.074219 97.84375 C 51.886719 94.140625 44.363281 93.242188 37.960938 95.484375 C 36.835938 95.824219 35.828125 96.382812 34.816406 96.945312 C 34.816406 96.945312 16.171875 82.136719 6.175781 91.109375 C 0 96.71875 9.097656 96.382812 12.914062 96.273438 C 13.363281 96.273438 13.703125 96.273438 13.925781 96.273438 C 18.195312 96.496094 25.945312 104.347656 24.035156 108.949219 C 20.890625 116.464844 21.789062 125.214844 26.84375 131.949219 C 32.234375 139.128906 40.992188 143.953125 53.570312 146.644531 C 66.375 149.335938 70.082031 159.210938 70.980469 167.0625 Z M 115.566406 196.121094 C 117.136719 195.558594 118.933594 196.34375 119.609375 198.027344 C 120.171875 199.597656 119.382812 201.394531 117.699219 202.066406 C 116.128906 202.625 114.332031 201.839844 113.65625 200.160156 C 113.09375 198.476562 113.992188 196.679688 115.566406 196.121094 Z M 43.800781 132.621094 C 37.175781 128.019531 30.660156 119.832031 34.367188 111.082031 C 34.929688 109.621094 35.828125 108.5 36.835938 107.714844 C 43.464844 101.992188 54.695312 104.574219 60.199219 109.511719 C 65.25 114.109375 70.53125 122.636719 68.621094 129.816406 C 65.476562 141.035156 50.875 137.558594 43.800781 132.621094 Z M 43.800781 132.621094 " fill-opacity="1" fill-rule="nonzero"/><path fill="#000000" d="M 123.988281 182.546875 C 123.988281 182.433594 123.988281 182.433594 123.988281 182.320312 C 122.417969 173.457031 122.753906 166.839844 125 162.574219 C 126.796875 158.984375 126.574219 154.722656 124.214844 151.582031 C 119.496094 145.296875 115.339844 135.539062 122.527344 124.992188 C 129.71875 114.332031 132.75 104.796875 131.625 95.824219 C 130.277344 84.378906 120.730469 75.742188 109.050781 75.179688 C 105.234375 74.957031 101.640625 75.628906 98.382812 77.199219 C 92.207031 80.003906 87.375 85.839844 84.792969 93.464844 C 83.332031 97.84375 82.660156 102.554688 82.882812 107.042969 C 75.246094 107.714844 76.820312 113.886719 78.617188 116.578125 C 80.636719 119.496094 86.476562 120.953125 86.476562 120.953125 C 88.613281 124.992188 90.96875 128.917969 93.328125 132.734375 C 101.414062 146.082031 108.601562 158.085938 106.804688 173.90625 C 110.847656 175.253906 119.273438 178.617188 123.988281 182.546875 Z M 92.316406 103.789062 C 92.316406 102.441406 92.429688 101.09375 92.65625 99.863281 C 94.003906 92.90625 100.964844 84.492188 108.828125 85.277344 C 126.683594 87.070312 123.089844 124.65625 106.132812 124.207031 C 96.359375 123.871094 92.316406 111.753906 92.316406 103.789062 Z M 92.316406 103.789062 " fill-opacity="1" fill-rule="nonzero"/><g clip-path="url(#278556d0e1)"><path fill="#000000" d="M 224.730469 193.765625 L 261.792969 211.828125 L 280.660156 211.828125 L 333.894531 102.890625 C 335.691406 99.300781 334.230469 95.039062 330.75 93.242188 L 324.234375 90.550781 L 284.140625 73.832031 C 283.019531 73.386719 281.671875 73.945312 281.222656 75.066406 C 280.773438 76.191406 281.335938 77.421875 282.457031 77.871094 L 319.742188 96.046875 C 320.640625 96.496094 320.980469 97.503906 320.53125 98.402344 L 320.304688 98.851562 C 319.855469 99.75 318.84375 100.085938 318.058594 99.636719 L 280.996094 82.472656 C 279.425781 81.800781 277.851562 81.800781 277.515625 82.585938 C 277.179688 83.371094 278.078125 84.605469 279.539062 85.390625 L 315.8125 104.011719 C 316.597656 104.460938 316.9375 105.472656 316.597656 106.257812 C 316.148438 107.152344 315.140625 107.492188 314.351562 107.042969 L 277.402344 89.875 C 275.832031 89.203125 274.257812 89.203125 273.921875 89.988281 C 273.585938 90.773438 274.484375 92.007812 275.941406 92.792969 L 312.332031 111.417969 C 313.117188 111.867188 313.453125 112.875 313.117188 113.660156 C 312.667969 114.558594 311.65625 114.894531 310.871094 114.445312 L 273.808594 97.28125 C 272.238281 96.609375 270.664062 96.609375 270.328125 97.394531 C 269.992188 98.179688 270.890625 99.414062 272.347656 100.199219 L 308.738281 118.820312 C 309.523438 119.269531 309.859375 120.28125 309.523438 121.066406 C 309.074219 121.960938 308.0625 122.300781 307.277344 121.851562 L 270.214844 104.6875 C 268.644531 104.011719 267.070312 104.011719 266.734375 104.796875 C 266.398438 105.582031 267.296875 106.816406 268.753906 107.601562 L 305.144531 126.226562 C 305.929688 126.675781 306.265625 127.683594 305.929688 128.46875 C 305.480469 129.367188 304.46875 129.703125 303.683594 129.253906 L 266.621094 111.976562 C 265.050781 111.304688 263.476562 111.304688 263.140625 112.089844 C 262.804688 112.875 263.703125 114.109375 265.160156 114.894531 L 301.550781 133.519531 C 302.335938 133.96875 302.671875 134.976562 302.335938 135.761719 C 301.886719 136.660156 300.875 136.996094 300.089844 136.546875 L 262.914062 119.496094 C 261.34375 118.820312 259.769531 118.820312 259.433594 119.605469 C 259.097656 120.390625 259.996094 121.625 261.457031 122.410156 L 297.957031 141.035156 C 298.742188 141.484375 299.078125 142.492188 298.742188 143.277344 C 298.292969 144.175781 297.28125 144.511719 296.496094 144.0625 L 259.320312 126.898438 C 257.75 126.226562 256.175781 126.226562 255.839844 127.011719 C 255.503906 127.796875 256.402344 129.03125 257.863281 129.816406 L 294.363281 148.441406 C 295.148438 148.886719 295.484375 149.898438 295.148438 150.683594 C 294.699219 151.582031 293.6875 151.917969 292.902344 151.46875 L 255.726562 134.191406 C 254.15625 133.519531 252.582031 133.519531 252.246094 134.304688 C 251.910156 135.089844 252.808594 136.324219 254.269531 137.109375 L 290.769531 155.84375 C 291.554688 156.292969 291.890625 157.300781 291.554688 158.085938 C 291.105469 158.984375 290.09375 159.320312 289.308594 158.875 L 252.132812 141.597656 C 250.5625 140.921875 248.988281 140.921875 248.652344 141.707031 C 248.316406 142.492188 249.214844 143.726562 250.671875 144.511719 L 287.175781 163.25 C 287.960938 163.699219 288.296875 164.707031 287.960938 165.492188 C 287.511719 166.390625 286.5 166.726562 285.714844 166.277344 L 248.425781 149 C 246.855469 148.328125 245.28125 148.328125 244.945312 149.113281 C 244.609375 149.898438 245.507812 151.132812 246.96875 151.917969 L 283.582031 170.652344 C 284.367188 171.101562 284.703125 172.113281 284.367188 172.898438 C 283.917969 173.792969 282.90625 174.132812 282.121094 173.683594 L 244.832031 156.515625 C 243.261719 155.84375 241.6875 155.84375 241.351562 156.628906 C 241.015625 157.414062 241.914062 158.648438 243.375 159.433594 L 279.988281 178.167969 C 280.773438 178.617188 281.109375 179.628906 280.773438 180.414062 C 280.324219 181.3125 279.3125 181.648438 278.527344 181.199219 L 241.238281 163.921875 C 239.667969 163.25 238.09375 163.25 237.757812 164.035156 C 237.421875 164.820312 238.320312 166.054688 239.78125 166.839844 L 276.394531 185.574219 C 277.179688 186.023438 277.515625 187.03125 277.179688 187.816406 C 276.730469 188.714844 275.71875 189.050781 274.933594 188.601562 L 237.644531 171.214844 C 236.074219 170.539062 234.5 170.539062 234.164062 171.324219 C 233.828125 172.113281 234.726562 173.34375 236.1875 174.128906 L 272.910156 192.867188 C 273.695312 193.316406 274.035156 194.324219 273.695312 195.109375 C 273.246094 196.007812 272.238281 196.34375 271.449219 195.894531 L 234.050781 178.507812 C 232.480469 177.832031 230.90625 177.832031 230.570312 178.617188 C 230.234375 179.402344 231.132812 180.636719 232.59375 181.421875 L 269.316406 200.160156 C 270.101562 200.609375 270.441406 201.617188 270.101562 202.402344 C 269.652344 203.300781 268.644531 203.636719 267.855469 203.1875 L 230.457031 185.796875 C 228.886719 185.125 227.3125 185.125 226.976562 185.910156 C 226.640625 186.695312 227.539062 187.929688 229 188.714844 L 266.621094 208.011719 C 266.957031 208.238281 267.070312 208.574219 266.957031 209.023438 L 266.507812 209.808594 C 266.285156 210.144531 265.949219 210.367188 265.5 210.144531 L 226.078125 190.960938 C 225.402344 190.621094 224.503906 190.847656 224.167969 191.519531 C 223.71875 192.53125 224.054688 193.425781 224.730469 193.765625 Z M 224.730469 193.765625 " fill-opacity="1" fill-rule="nonzero"/></g><path fill="#000000" d="M 222.484375 198.363281 L 250.226562 211.828125 L 256.738281 211.828125 L 223.832031 195.785156 C 223.15625 195.445312 222.257812 195.671875 221.921875 196.34375 C 221.472656 197.015625 221.808594 197.914062 222.484375 198.363281 Z M 222.484375 198.363281 " fill-opacity="1" fill-rule="nonzero"/><path fill="#000000" d="M 215.519531 211.828125 L 221.921875 211.828125 L 217.207031 209.46875 C 216.53125 209.132812 215.632812 209.359375 215.296875 210.03125 C 214.847656 210.703125 214.960938 211.378906 215.519531 211.828125 Z M 215.519531 211.828125 " fill-opacity="1" fill-rule="nonzero"/><path fill="#000000" d="M 217.992188 207.449219 L 226.976562 211.828125 L 233.492188 211.828125 L 219.339844 204.984375 C 218.664062 204.644531 217.765625 204.871094 217.429688 205.542969 C 216.980469 206.21875 217.316406 207.113281 217.992188 207.449219 Z M 217.992188 207.449219 " fill-opacity="1" fill-rule="nonzero"/><path fill="#000000" d="M 220.238281 202.851562 L 238.542969 211.828125 L 245.058594 211.828125 L 221.585938 200.382812 C 220.910156 200.046875 220.011719 200.269531 219.675781 200.945312 C 219.226562 201.617188 219.5625 202.515625 220.238281 202.851562 Z M 220.238281 202.851562 " fill-opacity="1" fill-rule="nonzero"/><path fill="#000000" d="M 158.355469 150.011719 C 157.007812 165.269531 154.089844 184.5625 150.605469 203.300781 C 150.15625 205.992188 149.484375 208.910156 148.585938 211.828125 L 164.53125 211.828125 L 164.53125 211.714844 C 164.757812 209.808594 164.980469 207.898438 165.09375 205.992188 C 166.328125 190.285156 163.972656 175.253906 160.039062 157.414062 C 159.589844 154.945312 159.03125 152.476562 158.355469 150.011719 Z M 158.355469 150.011719 " fill-opacity="1" fill-rule="nonzero"/><path fill="#000000" d="M 158.691406 127.574219 C 161.050781 125.328125 164.421875 123.644531 167.339844 122.972656 C 168.464844 106.929688 182.054688 97.730469 175.089844 92.007812 C 168.015625 86.175781 154.425781 110.519531 158.132812 123.980469 C 158.242188 124.992188 158.46875 126.226562 158.691406 127.574219 Z M 158.691406 127.574219 " fill-opacity="1" fill-rule="nonzero"/><path fill="#000000" d="M 207.660156 189.386719 C 204.515625 168.519531 194.519531 144.625 185.984375 134.078125 C 182.054688 129.253906 175.875 124.429688 169.023438 124.992188 C 168.464844 124.992188 167.902344 125.105469 167.226562 125.328125 C 164.082031 126.113281 160.601562 128.132812 158.917969 130.714844 C 158.804688 130.9375 158.582031 131.164062 158.46875 131.386719 C 157.121094 134.191406 157.234375 136.433594 157.90625 139.238281 C 158.132812 140.023438 158.242188 140.8125 158.46875 141.707031 L 158.691406 142.382812 C 158.691406 142.492188 158.804688 142.605469 158.804688 142.828125 C 158.917969 143.167969 158.917969 143.390625 159.03125 143.726562 C 164.980469 160.105469 172.28125 193.316406 169.8125 211.9375 L 208.445312 211.9375 C 208.558594 204.984375 208.78125 196.570312 207.660156 189.386719 Z M 170.933594 146.421875 C 170.820312 146.421875 170.710938 146.53125 170.597656 146.53125 C 168.238281 146.980469 165.992188 145.410156 165.542969 143.054688 C 165.09375 140.699219 166.667969 138.453125 169.023438 138.003906 C 169.136719 138.003906 169.25 138.003906 169.363281 138.003906 C 171.609375 137.78125 173.628906 139.238281 174.078125 141.484375 C 174.414062 143.726562 173.066406 145.859375 170.933594 146.421875 Z M 170.933594 146.421875 " fill-opacity="1" fill-rule="nonzero"/><g fill="#000000" fill-opacity="1"><g transform="translate(87.992763, 247.856878)"><g><path d="M 7.929688 0 L 25.878906 0 L 25.878906 -16.070312 C 25.878906 -23.371094 21.496094 -27.128906 14.191406 -27.128906 L 3.171875 -27.128906 L 3.128906 -16.152344 C 3.128906 -16.152344 12.855469 -14.984375 12.980469 -21.578125 C 12.980469 -23.121094 12.480469 -24.25 11.6875 -25.042969 L 11.980469 -25.460938 C 14.105469 -24.332031 15.484375 -22.289062 15.402344 -18.78125 L 15.402344 -14.816406 L 8.890625 -14.816406 C -1.792969 -14.816406 -2.503906 0 7.929688 0 Z M 15.484375 -13.605469 L 15.484375 -6.300781 C 16.613281 -6.09375 17.445312 -5.132812 17.445312 -3.964844 C 17.445312 -2.671875 16.402344 -1.628906 15.109375 -1.628906 C 12.480469 -1.628906 11.351562 -5.632812 11.394531 -7.597656 C 11.4375 -10.351562 13.105469 -12.6875 15.484375 -13.605469 Z M 15.484375 -13.605469 "/></g></g></g><g fill="#000000" fill-opacity="1"><g transform="translate(115.743759, 247.856878)"><g><path d="M 11.4375 0 L 11.4375 -13.398438 C 11.4375 -17.238281 16.195312 -17.195312 16.195312 -13.3125 L 16.195312 0 L 26.378906 0 L 26.378906 -17.113281 C 26.378906 -22.414062 25.25 -27.128906 19.117188 -27.253906 C 13.730469 -27.378906 12.0625 -22.414062 11.980469 -17.613281 L 11.4375 -17.613281 L 11.4375 -27.128906 L 1.042969 -27.128906 L 1.042969 0 Z M 11.4375 0 "/></g></g></g><g fill="#000000" fill-opacity="1"><g transform="translate(143.912054, 247.856878)"><g><path d="M 16.234375 -27.128906 L 16.234375 -13.730469 C 16.234375 -9.851562 11.476562 -9.890625 11.476562 -13.773438 L 11.476562 -27.128906 L 1.253906 -27.128906 L 1.253906 -10.015625 C 1.253906 -4.714844 2.421875 0 8.515625 0.167969 C 13.941406 0.25 15.566406 -4.675781 15.691406 -9.472656 L 16.234375 -9.472656 L 16.234375 0 L 26.628906 0 L 26.628906 -27.128906 Z M 16.234375 -27.128906 "/></g></g></g><g fill="#000000" fill-opacity="1"><g transform="translate(172.414197, 247.856878)"><g/></g></g><g fill="#000000" fill-opacity="1"><g transform="translate(184.307595, 247.856878)"><g><path d="M 0.625 -13.355469 C 0.667969 -2.964844 7.761719 0.835938 17.195312 0.25 L 17.195312 -0.292969 C 13.355469 -0.542969 11.351562 -6.929688 11.351562 -13.230469 C 11.351562 -17.152344 12.019531 -24.542969 16.652344 -25.710938 L 16.863281 -25.25 C 15.566406 -24.375 14.648438 -22.996094 14.691406 -20.785156 C 14.816406 -13.691406 24.5 -14.984375 24.5 -14.984375 C 24.457031 -18.992188 24.5 -23.082031 24.5 -27.085938 L 16.320312 -27.085938 C 6.886719 -27.085938 0.585938 -24 0.625 -13.355469 Z M 24.542969 -12.019531 L 24.542969 -0.0429688 C 24.542969 -0.0429688 14.648438 1.210938 14.566406 -5.96875 C 14.441406 -12.4375 22.414062 -12.019531 24.542969 -12.019531 Z M 24.542969 -12.019531 "/></g></g></g><g fill="#000000" fill-opacity="1"><g transform="translate(210.514552, 247.856878)"><g><path d="M 16.234375 -27.128906 L 16.234375 -13.730469 C 16.234375 -9.851562 11.476562 -9.890625 11.476562 -13.773438 L 11.476562 -27.128906 L 1.253906 -27.128906 L 1.253906 -10.015625 C 1.253906 -4.714844 2.421875 0 8.515625 0.167969 C 13.941406 0.25 15.566406 -4.675781 15.691406 -9.472656 L 16.234375 -9.472656 L 16.234375 0 L 26.628906 0 L 26.628906 -27.128906 Z M 16.234375 -27.128906 "/></g></g></g><g fill="#000000" fill-opacity="1"><g transform="translate(239.01669, 247.856878)"><g><path d="M 6.554688 -15.359375 L 6.59375 0 L 16.863281 0 L 16.820312 -15.902344 L 21.621094 -15.902344 L 21.621094 -27.128906 L 1.085938 -27.128906 L 1.085938 -15.859375 C 3.003906 -15.859375 10.351562 -15.441406 10.265625 -21.410156 C 10.226562 -23.664062 9.183594 -24.667969 7.804688 -25.460938 L 7.972656 -25.917969 C 15.566406 -24.707031 13.523438 -15.734375 6.554688 -15.359375 Z M 6.554688 -15.359375 "/></g></g></g><g fill="#000000" fill-opacity="1"><g transform="translate(261.926936, 247.856878)"><g><path d="M 10.101562 -27.171875 C 5.675781 -27.171875 0.792969 -26.546875 0.542969 -20.910156 C 0.125 -12.230469 13.773438 -13.980469 14.234375 -5.59375 C 14.105469 -1.878906 11.5625 -1.167969 8.347656 -1.085938 L 8.222656 -1.542969 C 9.726562 -2.378906 10.726562 -3.546875 10.683594 -5.96875 C 10.601562 -13.0625 1.167969 -11.8125 1.167969 -11.8125 L 1.210938 -0.0429688 L 16.863281 -0.0429688 C 21.785156 -0.0429688 23.832031 -3.089844 24.332031 -6.09375 C 24.917969 -9.601562 23.121094 -12.1875 19.28125 -14.316406 C 16.445312 -15.902344 11.1875 -17.90625 11.3125 -21.871094 C 11.394531 -25.335938 14.734375 -26.417969 17.738281 -26.253906 L 17.820312 -25.792969 C 16.359375 -25 15.234375 -23.957031 15.277344 -21.578125 C 15.359375 -14.859375 24.292969 -16.070312 24.292969 -16.070312 L 24.25 -27.171875 Z M 10.101562 -27.171875 "/></g></g></g></svg>