<svg xmlns="http://www.w3.org/2000/svg" xmlns:xlink="http://www.w3.org/1999/xlink" width="500" zoomAndPan="magnify" viewBox="0 0 375 374.999991" height="500" preserveAspectRatio="xMidYMid meet" version="1.0"><defs><clipPath id="98e24c761a"><path d="M 2 250 L 375 250 L 375 258.671875 L 2 258.671875 Z M 2 250 " clip-rule="nonzero"/></clipPath><clipPath id="fceb4e615d"><path d="M 223 116.171875 L 335 116.171875 L 335 255 L 223 255 Z M 223 116.171875 " clip-rule="nonzero"/></clipPath></defs><g clip-path="url(#98e24c761a)"><path fill="#000000" d="M 371.179688 258.660156 L 5.953125 258.660156 C 3.820312 258.660156 2.023438 256.867188 2.023438 254.734375 C 2.023438 252.605469 3.820312 250.808594 5.953125 250.808594 L 371.070312 250.808594 C 373.203125 250.808594 375 252.605469 375 254.734375 C 375 256.867188 373.316406 258.660156 371.179688 258.660156 Z M 371.179688 258.660156 " fill-opacity="1" fill-rule="nonzero"/></g><path fill="#000000" d="M 70.980469 209.859375 C 71.429688 213.898438 74.234375 217.039062 78.054688 218.386719 C 82.546875 219.957031 87.375 224.554688 92.429688 231.960938 C 94.226562 234.542969 99.394531 242.957031 106.582031 254.625 L 136.90625 254.625 L 129.15625 234.765625 C 126.796875 229.492188 122.191406 225.339844 116.578125 223.324219 C 88.949219 213.5625 84.90625 195.613281 80.1875 174.855469 C 79.179688 170.59375 78.167969 166.105469 76.933594 161.730469 C 74.574219 153.316406 67.722656 145.238281 59.074219 140.640625 C 51.886719 136.9375 44.363281 136.039062 37.960938 138.28125 C 36.835938 138.621094 35.828125 139.179688 34.816406 139.742188 C 34.816406 139.742188 16.171875 124.933594 6.175781 133.90625 C 0 139.515625 9.097656 139.179688 12.914062 139.066406 C 13.363281 139.066406 13.703125 139.066406 13.925781 139.066406 C 18.195312 139.292969 25.945312 147.144531 24.035156 151.746094 C 20.890625 159.261719 21.789062 168.011719 26.84375 174.746094 C 32.234375 181.925781 40.992188 186.75 53.570312 189.441406 C 66.375 192.132812 70.082031 202.007812 70.980469 209.859375 Z M 115.566406 238.917969 C 117.136719 238.355469 118.933594 239.140625 119.609375 240.824219 C 120.171875 242.394531 119.382812 244.191406 117.699219 244.863281 C 116.128906 245.421875 114.332031 244.636719 113.65625 242.957031 C 113.09375 241.273438 113.992188 239.476562 115.566406 238.917969 Z M 43.800781 175.417969 C 37.175781 170.816406 30.660156 162.628906 34.367188 153.878906 C 34.929688 152.417969 35.828125 151.296875 36.835938 150.511719 C 43.464844 144.789062 54.695312 147.371094 60.199219 152.308594 C 65.25 156.90625 70.53125 165.433594 68.621094 172.613281 C 65.476562 183.832031 50.875 180.355469 43.800781 175.417969 Z M 43.800781 175.417969 " fill-opacity="1" fill-rule="nonzero"/><path fill="#000000" d="M 123.988281 225.339844 C 123.988281 225.230469 123.988281 225.230469 123.988281 225.117188 C 122.417969 216.253906 122.753906 209.636719 125 205.371094 C 126.796875 201.78125 126.574219 197.519531 124.214844 194.378906 C 119.496094 188.09375 115.339844 178.335938 122.527344 167.789062 C 129.71875 157.128906 132.75 147.59375 131.625 138.621094 C 130.277344 127.175781 120.730469 118.539062 109.050781 117.976562 C 105.234375 117.753906 101.640625 118.425781 98.382812 119.996094 C 92.207031 122.800781 87.375 128.632812 84.792969 136.261719 C 83.332031 140.640625 82.660156 145.351562 82.882812 149.839844 C 75.246094 150.511719 76.820312 156.683594 78.617188 159.375 C 80.636719 162.292969 86.476562 163.75 86.476562 163.75 C 88.613281 167.789062 90.96875 171.714844 93.328125 175.53125 C 101.414062 188.878906 108.601562 200.882812 106.804688 216.703125 C 110.847656 218.050781 119.273438 221.414062 123.988281 225.339844 Z M 92.316406 146.585938 C 92.316406 145.238281 92.429688 143.890625 92.65625 142.660156 C 94.003906 135.703125 100.964844 127.289062 108.828125 128.074219 C 126.683594 129.867188 123.089844 167.453125 106.132812 167.003906 C 96.359375 166.667969 92.316406 154.550781 92.316406 146.585938 Z M 92.316406 146.585938 " fill-opacity="1" fill-rule="nonzero"/><g clip-path="url(#fceb4e615d)"><path fill="#000000" d="M 224.730469 236.5625 L 261.792969 254.625 L 280.660156 254.625 L 333.894531 145.6875 C 335.691406 142.097656 334.230469 137.835938 330.75 136.039062 L 324.234375 133.347656 L 284.140625 116.628906 C 283.019531 116.183594 281.671875 116.742188 281.222656 117.863281 C 280.773438 118.988281 281.335938 120.21875 282.457031 120.667969 L 319.742188 138.84375 C 320.640625 139.292969 320.980469 140.300781 320.53125 141.199219 L 320.304688 141.648438 C 319.855469 142.546875 318.84375 142.882812 318.058594 142.433594 L 280.996094 125.269531 C 279.425781 124.597656 277.851562 124.597656 277.515625 125.382812 C 277.179688 126.167969 278.078125 127.402344 279.539062 128.1875 L 315.8125 146.808594 C 316.597656 147.257812 316.9375 148.269531 316.597656 149.054688 C 316.148438 149.949219 315.140625 150.289062 314.351562 149.839844 L 277.402344 132.671875 C 275.832031 132 274.257812 132 273.921875 132.785156 C 273.585938 133.570312 274.484375 134.804688 275.941406 135.589844 L 312.332031 154.214844 C 313.117188 154.664062 313.453125 155.671875 313.117188 156.457031 C 312.667969 157.355469 311.65625 157.691406 310.871094 157.242188 L 273.808594 140.078125 C 272.238281 139.40625 270.664062 139.40625 270.328125 140.191406 C 269.992188 140.976562 270.890625 142.210938 272.347656 142.996094 L 308.738281 161.617188 C 309.523438 162.066406 309.859375 163.078125 309.523438 163.863281 C 309.074219 164.757812 308.0625 165.097656 307.277344 164.648438 L 270.214844 147.484375 C 268.644531 146.808594 267.070312 146.808594 266.734375 147.59375 C 266.398438 148.378906 267.296875 149.613281 268.753906 150.398438 L 305.144531 169.023438 C 305.929688 169.472656 306.265625 170.480469 305.929688 171.265625 C 305.480469 172.164062 304.46875 172.5 303.683594 172.050781 L 266.621094 154.773438 C 265.050781 154.101562 263.476562 154.101562 263.140625 154.886719 C 262.804688 155.671875 263.703125 156.90625 265.160156 157.691406 L 301.550781 176.316406 C 302.335938 176.765625 302.671875 177.773438 302.335938 178.558594 C 301.886719 179.457031 300.875 179.792969 300.089844 179.34375 L 262.914062 162.292969 C 261.34375 161.617188 259.769531 161.617188 259.433594 162.402344 C 259.097656 163.1875 259.996094 164.421875 261.457031 165.207031 L 297.957031 183.832031 C 298.742188 184.28125 299.078125 185.289062 298.742188 186.074219 C 298.292969 186.972656 297.28125 187.308594 296.496094 186.859375 L 259.320312 169.695312 C 257.75 169.023438 256.175781 169.023438 255.839844 169.808594 C 255.503906 170.59375 256.402344 171.828125 257.863281 172.613281 L 294.363281 191.234375 C 295.148438 191.683594 295.484375 192.695312 295.148438 193.480469 C 294.699219 194.378906 293.6875 194.714844 292.902344 194.265625 L 255.726562 176.988281 C 254.15625 176.316406 252.582031 176.316406 252.246094 177.101562 C 251.910156 177.886719 252.808594 179.121094 254.269531 179.90625 L 290.769531 198.640625 C 291.554688 199.089844 291.890625 200.097656 291.554688 200.882812 C 291.105469 201.78125 290.09375 202.117188 289.308594 201.671875 L 252.132812 184.394531 C 250.5625 183.71875 248.988281 183.71875 248.652344 184.503906 C 248.316406 185.289062 249.214844 186.523438 250.671875 187.308594 L 287.175781 206.046875 C 287.960938 206.492188 288.296875 207.503906 287.960938 208.289062 C 287.511719 209.1875 286.5 209.523438 285.714844 209.074219 L 248.425781 191.796875 C 246.855469 191.125 245.28125 191.125 244.945312 191.910156 C 244.609375 192.695312 245.507812 193.929688 246.96875 194.714844 L 283.582031 213.449219 C 284.367188 213.898438 284.703125 214.910156 284.367188 215.695312 C 283.917969 216.589844 282.90625 216.929688 282.121094 216.480469 L 244.832031 199.3125 C 243.261719 198.640625 241.6875 198.640625 241.351562 199.425781 C 241.015625 200.210938 241.914062 201.445312 243.375 202.230469 L 279.988281 220.964844 C 280.773438 221.414062 281.109375 222.425781 280.773438 223.210938 C 280.324219 224.109375 279.3125 224.445312 278.527344 223.996094 L 241.238281 206.71875 C 239.667969 206.046875 238.09375 206.046875 237.757812 206.832031 C 237.421875 207.617188 238.320312 208.851562 239.78125 209.636719 L 276.394531 228.371094 C 277.179688 228.820312 277.515625 229.828125 277.179688 230.613281 C 276.730469 231.511719 275.71875 231.847656 274.933594 231.398438 L 237.644531 214.011719 C 236.074219 213.335938 234.5 213.335938 234.164062 214.121094 C 233.828125 214.910156 234.726562 216.140625 236.1875 216.925781 L 272.910156 235.664062 C 273.695312 236.113281 274.035156 237.121094 273.695312 237.90625 C 273.246094 238.804688 272.238281 239.140625 271.449219 238.691406 L 234.050781 221.304688 C 232.480469 220.628906 230.90625 220.628906 230.570312 221.414062 C 230.234375 222.199219 231.132812 223.433594 232.59375 224.21875 L 269.316406 242.957031 C 270.101562 243.40625 270.441406 244.414062 270.101562 245.199219 C 269.652344 246.097656 268.644531 246.433594 267.855469 245.984375 L 230.457031 228.59375 C 228.886719 227.921875 227.3125 227.921875 226.976562 228.707031 C 226.640625 229.492188 227.539062 230.726562 229 231.511719 L 266.621094 250.808594 C 266.957031 251.035156 267.070312 251.371094 266.957031 251.820312 L 266.507812 252.605469 C 266.285156 252.941406 265.949219 253.164062 265.5 252.941406 L 226.078125 233.757812 C 225.402344 233.417969 224.503906 233.644531 224.167969 234.316406 C 223.71875 235.328125 224.054688 236.222656 224.730469 236.5625 Z M 224.730469 236.5625 " fill-opacity="1" fill-rule="nonzero"/></g><path fill="#000000" d="M 222.484375 241.160156 L 250.226562 254.625 L 256.738281 254.625 L 223.832031 238.582031 C 223.15625 238.242188 222.257812 238.46875 221.921875 239.140625 C 221.472656 239.8125 221.808594 240.710938 222.484375 241.160156 Z M 222.484375 241.160156 " fill-opacity="1" fill-rule="nonzero"/><path fill="#000000" d="M 215.519531 254.625 L 221.921875 254.625 L 217.207031 252.265625 C 216.53125 251.929688 215.632812 252.15625 215.296875 252.828125 C 214.847656 253.5 214.960938 254.175781 215.519531 254.625 Z M 215.519531 254.625 " fill-opacity="1" fill-rule="nonzero"/><path fill="#000000" d="M 217.992188 250.246094 L 226.976562 254.625 L 233.492188 254.625 L 219.339844 247.78125 C 218.664062 247.441406 217.765625 247.667969 217.429688 248.339844 C 216.980469 249.011719 217.316406 249.910156 217.992188 250.246094 Z M 217.992188 250.246094 " fill-opacity="1" fill-rule="nonzero"/><path fill="#000000" d="M 220.238281 245.648438 L 238.542969 254.625 L 245.058594 254.625 L 221.585938 243.179688 C 220.910156 242.84375 220.011719 243.066406 219.675781 243.742188 C 219.226562 244.414062 219.5625 245.3125 220.238281 245.648438 Z M 220.238281 245.648438 " fill-opacity="1" fill-rule="nonzero"/><path fill="#000000" d="M 158.355469 192.808594 C 157.007812 208.066406 154.089844 227.359375 150.605469 246.097656 C 150.15625 248.789062 149.484375 251.707031 148.585938 254.625 L 164.53125 254.625 L 164.53125 254.511719 C 164.757812 252.605469 164.980469 250.695312 165.09375 248.789062 C 166.328125 233.082031 163.972656 218.050781 160.039062 200.210938 C 159.589844 197.742188 159.03125 195.273438 158.355469 192.808594 Z M 158.355469 192.808594 " fill-opacity="1" fill-rule="nonzero"/><path fill="#000000" d="M 158.691406 170.367188 C 161.050781 168.125 164.421875 166.441406 167.339844 165.769531 C 168.464844 149.726562 182.054688 140.527344 175.089844 134.804688 C 168.015625 128.972656 154.425781 153.316406 158.132812 166.777344 C 158.242188 167.789062 158.46875 169.023438 158.691406 170.367188 Z M 158.691406 170.367188 " fill-opacity="1" fill-rule="nonzero"/><path fill="#000000" d="M 207.660156 232.183594 C 204.515625 211.316406 194.519531 187.421875 185.984375 176.875 C 182.054688 172.050781 175.875 167.226562 169.023438 167.789062 C 168.464844 167.789062 167.902344 167.902344 167.226562 168.125 C 164.082031 168.910156 160.601562 170.929688 158.917969 173.511719 C 158.804688 173.734375 158.582031 173.960938 158.46875 174.183594 C 157.121094 176.988281 157.234375 179.230469 157.90625 182.035156 C 158.132812 182.820312 158.242188 183.605469 158.46875 184.503906 L 158.691406 185.179688 C 158.691406 185.289062 158.804688 185.402344 158.804688 185.625 C 158.917969 185.964844 158.917969 186.1875 159.03125 186.523438 C 164.980469 202.902344 172.28125 236.113281 169.8125 254.734375 L 208.445312 254.734375 C 208.558594 247.78125 208.78125 239.367188 207.660156 232.183594 Z M 170.933594 189.21875 C 170.820312 189.21875 170.710938 189.328125 170.597656 189.328125 C 168.238281 189.777344 165.992188 188.207031 165.542969 185.851562 C 165.09375 183.496094 166.667969 181.25 169.023438 180.800781 C 169.136719 180.800781 169.25 180.800781 169.363281 180.800781 C 171.609375 180.578125 173.628906 182.035156 174.078125 184.28125 C 174.414062 186.523438 173.066406 188.65625 170.933594 189.21875 Z M 170.933594 189.21875 " fill-opacity="1" fill-rule="nonzero"/></svg>