<svg xmlns="http://www.w3.org/2000/svg" xmlns:xlink="http://www.w3.org/1999/xlink" width="500" zoomAndPan="magnify" viewBox="0 0 375 374.999991" height="500" preserveAspectRatio="xMidYMid meet" version="1.0"><defs><clipPath id="789283f169"><path d="M 153 219 L 220 219 L 220 262.5 L 153 262.5 Z M 153 219 " clip-rule="nonzero"/></clipPath><clipPath id="cae7491589"><path d="M 121.40625 116 L 182 116 L 182 207 L 121.40625 207 Z M 121.40625 116 " clip-rule="nonzero"/></clipPath></defs><g clip-path="url(#789283f169)"><path fill="#000000" d="M 201.804688 262.5 L 171.492188 262.5 L 171.492188 257.3125 C 172.332031 257.398438 173.175781 257.441406 174.019531 257.441406 L 199.277344 257.441406 C 200.121094 257.441406 200.964844 257.398438 201.804688 257.3125 Z M 219.484375 232.144531 C 219.484375 232.808594 219.453125 233.46875 219.386719 234.128906 C 219.320312 234.789062 219.222656 235.441406 219.09375 236.09375 C 218.964844 236.742188 218.804688 237.382812 218.609375 238.015625 C 218.417969 238.652344 218.195312 239.273438 217.941406 239.886719 C 217.6875 240.5 217.40625 241.097656 217.09375 241.679688 C 216.78125 242.265625 216.441406 242.832031 216.074219 243.382812 C 215.707031 243.933594 215.3125 244.464844 214.890625 244.976562 C 214.472656 245.488281 214.027344 245.980469 213.558594 246.449219 C 213.09375 246.917969 212.601562 247.359375 212.089844 247.78125 C 211.578125 248.203125 211.050781 248.597656 210.5 248.964844 C 209.949219 249.332031 209.382812 249.671875 208.800781 249.984375 C 208.214844 250.296875 207.617188 250.582031 207.007812 250.835938 C 206.398438 251.089844 205.773438 251.3125 205.140625 251.503906 C 204.507812 251.699219 203.867188 251.859375 203.21875 251.988281 C 202.570312 252.121094 201.917969 252.21875 201.257812 252.28125 C 200.601562 252.347656 199.941406 252.382812 199.277344 252.382812 L 174.019531 252.382812 C 173.355469 252.382812 172.695312 252.347656 172.039062 252.28125 C 171.378906 252.21875 170.726562 252.121094 170.078125 251.988281 C 169.429688 251.859375 168.789062 251.699219 168.15625 251.503906 C 167.523438 251.3125 166.902344 251.089844 166.289062 250.835938 C 165.679688 250.582031 165.082031 250.296875 164.496094 249.984375 C 163.914062 249.671875 163.347656 249.332031 162.796875 248.964844 C 162.246094 248.597656 161.71875 248.203125 161.207031 247.78125 C 160.695312 247.359375 160.203125 246.917969 159.738281 246.449219 C 159.269531 245.980469 158.824219 245.488281 158.40625 244.976562 C 157.984375 244.464844 157.589844 243.933594 157.222656 243.382812 C 156.855469 242.832031 156.515625 242.265625 156.203125 241.679688 C 155.890625 241.097656 155.609375 240.5 155.355469 239.886719 C 155.101562 239.273438 154.878906 238.652344 154.6875 238.015625 C 154.496094 237.382812 154.332031 236.742188 154.203125 236.09375 C 154.074219 235.441406 153.976562 234.789062 153.910156 234.128906 C 153.84375 233.46875 153.8125 232.808594 153.8125 232.144531 L 153.8125 219.5 L 219.484375 219.5 Z M 219.484375 232.144531 " fill-opacity="1" fill-rule="nonzero"/></g><g clip-path="url(#cae7491589)"><path fill="#000000" d="M 174.429688 203.730469 L 164.808594 206.832031 L 163.15625 201.714844 C 166.492188 201.082031 169.699219 200.054688 172.785156 198.636719 Z M 167.226562 123.664062 L 162.425781 125.214844 L 160.101562 117.996094 L 164.898438 116.445312 Z M 133.570312 134.539062 L 131.246094 127.316406 L 136.042969 125.765625 L 138.367188 132.988281 Z M 143.1875 131.433594 L 140.859375 124.210938 L 145.660156 122.660156 L 147.984375 129.882812 Z M 152.800781 128.320312 L 150.476562 121.101562 L 155.277344 119.550781 L 157.601562 126.769531 Z M 126.433594 128.863281 L 128.761719 136.085938 L 123.960938 137.636719 L 121.640625 130.414062 Z M 140.605469 172.875 C 137.113281 162.046875 132.320312 151.828125 126.226562 142.21875 L 168.050781 128.714844 C 168.714844 140.074219 170.785156 151.171875 174.269531 162.003906 L 181.363281 184.011719 C 178.335938 183.742188 175.3125 183.773438 172.292969 184.113281 C 169.273438 184.449219 166.320312 185.085938 163.429688 186.019531 C 160.539062 186.957031 157.769531 188.167969 155.121094 189.664062 C 152.476562 191.15625 150.003906 192.898438 147.707031 194.890625 Z M 152.449219 197.535156 C 154.320312 196.054688 156.308594 194.753906 158.410156 193.628906 C 160.515625 192.503906 162.703125 191.574219 164.972656 190.84375 C 167.242188 190.109375 169.558594 189.585938 171.921875 189.269531 C 174.285156 188.949219 176.65625 188.84375 179.039062 188.953125 C 177.167969 190.433594 175.183594 191.742188 173.078125 192.867188 C 170.976562 193.992188 168.789062 194.921875 166.519531 195.65625 C 164.25 196.386719 161.933594 196.910156 159.570312 197.226562 C 157.207031 197.542969 154.832031 197.644531 152.449219 197.535156 Z M 152.449219 197.535156 " fill-opacity="1" fill-rule="nonzero"/></g><path fill="#000000" d="M 249.347656 113.777344 C 249.042969 113.632812 248.730469 113.515625 248.40625 113.429688 C 248.082031 113.34375 247.75 113.289062 247.414062 113.269531 C 247.082031 113.246094 246.746094 113.257812 246.414062 113.300781 C 246.078125 113.339844 245.753906 113.414062 245.433594 113.519531 C 245.113281 113.625 244.808594 113.761719 244.515625 113.925781 C 244.222656 114.089844 243.949219 114.277344 243.691406 114.496094 C 243.433594 114.714844 243.199219 114.953125 242.988281 115.214844 C 242.777344 115.476562 242.59375 115.757812 242.4375 116.054688 L 213.015625 172.070312 L 196.902344 179.445312 C 196.542969 179.605469 196.207031 179.804688 195.894531 180.039062 C 195.578125 180.273438 195.292969 180.539062 195.035156 180.835938 C 194.773438 181.132812 194.550781 181.449219 194.359375 181.792969 C 194.167969 182.136719 194.015625 182.496094 193.898438 182.871094 C 193.785156 183.246094 193.710938 183.632812 193.675781 184.023438 C 193.640625 184.414062 193.648438 184.804688 193.699219 185.195312 C 193.746094 185.585938 193.835938 185.964844 193.964844 186.335938 C 194.09375 186.707031 194.261719 187.058594 194.464844 187.394531 L 186.421875 204.183594 L 190.96875 206.371094 L 198.625 190.410156 L 200.898438 191.503906 L 193.25 207.46875 L 197.796875 209.65625 L 205.457031 193.699219 L 207.730469 194.792969 L 200.085938 210.75 L 204.632812 212.9375 L 212.289062 196.984375 L 214.5625 198.078125 L 206.914062 214.042969 L 211.460938 216.234375 L 219.109375 200.265625 L 221.382812 201.363281 L 213.730469 217.328125 L 218.277344 219.515625 L 226.320312 202.726562 C 226.710938 202.675781 227.089844 202.585938 227.460938 202.453125 C 227.828125 202.324219 228.179688 202.15625 228.515625 201.949219 C 228.847656 201.742188 229.160156 201.503906 229.441406 201.234375 C 229.726562 200.960938 229.976562 200.664062 230.199219 200.335938 C 230.417969 200.011719 230.601562 199.667969 230.75 199.304688 C 230.898438 198.941406 231.007812 198.566406 231.074219 198.175781 C 231.144531 197.789062 231.171875 197.402344 231.15625 197.007812 C 231.140625 196.617188 231.085938 196.226562 230.992188 195.847656 L 226.652344 178.648438 L 251.886719 120.59375 C 252.019531 120.285156 252.121094 119.96875 252.195312 119.640625 C 252.265625 119.3125 252.308594 118.980469 252.316406 118.644531 C 252.324219 118.308594 252.300781 117.972656 252.246094 117.644531 C 252.191406 117.3125 252.105469 116.988281 251.988281 116.675781 C 251.871094 116.359375 251.722656 116.058594 251.550781 115.773438 C 251.375 115.484375 251.171875 115.21875 250.949219 114.96875 C 250.722656 114.722656 250.472656 114.496094 250.203125 114.296875 C 249.933594 114.097656 249.648438 113.921875 249.347656 113.777344 Z M 249.347656 113.777344 " fill-opacity="1" fill-rule="nonzero"/></svg>