<svg xmlns="http://www.w3.org/2000/svg" xmlns:xlink="http://www.w3.org/1999/xlink" width="500" zoomAndPan="magnify" viewBox="0 0 375 374.999991" height="500" preserveAspectRatio="xMidYMid meet" version="1.0"><defs><clipPath id="853345d0e0"><path d="M 189 141 L 255.6875 141 L 255.6875 191 L 189 191 Z M 189 141 " clip-rule="nonzero"/></clipPath><clipPath id="9a1118d566"><path d="M 154 112.5 L 224 112.5 L 224 262 L 154 262 Z M 154 112.5 " clip-rule="nonzero"/></clipPath></defs><path fill="#000000" d="M 173.332031 190.101562 C 173.195312 189.390625 173.019531 188.632812 172.839844 187.878906 C 172.21875 185.386719 172.351562 182.765625 173.195312 180.363281 C 173.152344 180.363281 173.109375 180.40625 173.109375 180.40625 C 168.796875 182.230469 165.332031 182.851562 162.933594 182.273438 C 160.890625 181.785156 158.757812 182.363281 157.421875 184.007812 C 154.800781 187.167969 150.359375 190.414062 144.09375 188.054688 C 137.785156 185.65625 132.585938 185.296875 128.1875 186.898438 C 122.542969 188.945312 119.253906 194.816406 120.367188 200.820312 C 120.722656 202.777344 121.476562 204.511719 122.632812 205.976562 C 124.808594 208.777344 128.320312 210.558594 132.539062 210.957031 C 134.941406 211.179688 137.382812 210.957031 139.648438 210.292969 C 140.894531 214.117188 143.871094 212.558594 145.027344 211.3125 C 146.269531 209.980469 146.316406 206.824219 146.316406 206.824219 C 148.136719 205.222656 149.824219 203.578125 151.46875 201.976562 C 157.910156 195.75 163.597656 190.191406 173.332031 190.101562 Z M 136.941406 205.886719 C 136.230469 206.066406 135.5625 206.15625 134.894531 206.199219 C 131.207031 206.332031 126.097656 203.796875 125.566406 199.707031 C 124.320312 190.457031 143.871094 187.746094 145.648438 196.460938 C 146.671875 201.398438 140.984375 204.910156 136.941406 205.886719 Z M 136.941406 205.886719 " fill-opacity="1" fill-rule="nonzero"/><g clip-path="url(#853345d0e0)"><path fill="#000000" d="M 189.238281 190.011719 C 189.460938 189.878906 189.679688 189.746094 189.902344 189.613281 L 254.820312 142.917969 C 255.621094 142.339844 254.910156 141.09375 254.019531 141.539062 C 239.757812 148.476562 217.230469 159.371094 199.5 167.910156 C 195.324219 176.894531 191.636719 184.808594 189.238281 190.011719 Z M 189.238281 190.011719 " fill-opacity="1" fill-rule="nonzero"/></g><g clip-path="url(#9a1118d566)"><path fill="#000000" d="M 167.554688 256.984375 C 167.421875 256.808594 167.332031 256.628906 167.242188 256.539062 C 166.132812 254.628906 167.242188 248.980469 169.863281 248.492188 C 174.042969 247.648438 177.59375 244.757812 179.0625 240.574219 C 180.617188 236.128906 180.21875 230.925781 177.773438 224.65625 C 175.328125 218.429688 178.574219 213.9375 181.683594 211.269531 C 183.28125 209.890625 183.859375 207.757812 183.328125 205.710938 C 182.707031 203.308594 183.28125 199.839844 185.105469 195.484375 C 187.460938 189.746094 211.230469 139.226562 223.09375 114.101562 C 223.496094 113.210938 222.25 112.5 221.71875 113.300781 L 175.730469 178.761719 C 174.128906 181.339844 173.597656 184.542969 174.351562 187.523438 C 178.085938 202.375 171.417969 209.3125 163.777344 217.363281 C 162.175781 219.007812 160.535156 220.742188 158.976562 222.566406 C 156 226.035156 154.445312 231.324219 154.980469 236.441406 C 155.421875 240.664062 157.199219 244.132812 160.042969 246.3125 C 160.535156 246.667969 161.023438 246.980469 161.554688 247.246094 C 161.554688 247.246094 161.511719 247.246094 161.511719 247.246094 C 161.511719 247.246094 160.445312 259.652344 167.242188 261.386719 C 171.507812 262.5 168.710938 258.585938 167.554688 256.984375 Z M 181.460938 183.476562 C 180.75 182.941406 180.574219 181.917969 181.105469 181.207031 C 181.640625 180.496094 182.660156 180.316406 183.371094 180.851562 C 184.082031 181.386719 184.261719 182.40625 183.726562 183.121094 C 183.195312 183.875 182.171875 184.007812 181.460938 183.476562 Z M 165.730469 243.332031 C 161.332031 242.089844 159.199219 236.484375 159.777344 232.703125 C 160.3125 229.191406 162.488281 224.433594 166.175781 223.1875 C 171.953125 221.230469 174.707031 228.613281 174.574219 233.105469 C 174.484375 237.285156 172.796875 242.53125 167.910156 243.464844 C 167.152344 243.554688 166.398438 243.511719 165.730469 243.332031 Z M 165.730469 243.332031 " fill-opacity="1" fill-rule="nonzero"/></g><path fill="#000000" d="M 168.308594 178.851562 C 169.332031 178.582031 170.488281 178.183594 171.910156 177.5625 L 173.152344 177.027344 L 174.128906 175.648438 L 174.042969 175.558594 C 173.90625 175.382812 173.90625 175.160156 174.042969 175.027344 L 175.195312 174.09375 L 178.574219 169.246094 L 172.976562 173.78125 C 172.839844 173.914062 172.574219 173.871094 172.441406 173.691406 L 172.175781 173.335938 C 172.042969 173.15625 172.042969 172.9375 172.175781 172.800781 L 181.195312 165.507812 L 184.570312 160.660156 L 171.152344 171.558594 C 171.019531 171.691406 170.753906 171.644531 170.621094 171.46875 L 170.351562 171.113281 C 170.21875 170.933594 170.21875 170.710938 170.351562 170.578125 L 186.925781 157.148438 C 187.238281 156.925781 187.28125 156.4375 187.015625 156.082031 C 186.75 155.726562 186.261719 155.59375 185.949219 155.859375 L 169.332031 169.332031 C 169.199219 169.46875 168.929688 169.421875 168.796875 169.246094 L 168.53125 168.890625 C 168.398438 168.710938 168.398438 168.488281 168.53125 168.355469 L 185.105469 154.925781 C 185.414062 154.703125 185.460938 154.214844 185.195312 153.859375 C 184.925781 153.503906 184.4375 153.367188 184.128906 153.636719 L 167.554688 167.066406 C 167.421875 167.199219 167.152344 167.15625 167.019531 166.976562 L 166.753906 166.621094 C 166.621094 166.441406 166.621094 166.222656 166.753906 166.085938 L 183.371094 152.65625 C 183.683594 152.433594 183.726562 151.945312 183.460938 151.589844 C 183.195312 151.234375 182.707031 151.101562 182.394531 151.367188 L 165.777344 164.84375 C 165.644531 164.976562 165.375 164.929688 165.242188 164.753906 L 164.976562 164.398438 C 164.84375 164.21875 164.84375 163.996094 164.976562 163.863281 L 181.59375 150.433594 C 181.90625 150.210938 181.949219 149.722656 181.683594 149.367188 C 181.417969 149.011719 180.929688 148.878906 180.617188 149.144531 L 163.953125 162.617188 C 163.820312 162.753906 163.554688 162.707031 163.421875 162.53125 L 163.15625 162.175781 C 163.023438 161.996094 163.023438 161.773438 163.15625 161.640625 L 179.773438 148.164062 C 180.082031 147.941406 180.128906 147.453125 179.863281 147.097656 C 179.59375 146.742188 179.105469 146.609375 178.796875 146.875 L 162.132812 160.351562 C 162 160.484375 161.734375 160.441406 161.601562 160.261719 L 161.332031 159.90625 C 161.199219 159.726562 161.199219 159.503906 161.332031 159.371094 L 177.949219 145.898438 C 178.261719 145.675781 178.304688 145.1875 178.039062 144.832031 C 177.773438 144.472656 177.285156 144.339844 176.972656 144.609375 L 160.3125 158.082031 C 160.179688 158.214844 159.910156 158.171875 159.777344 157.992188 L 159.511719 157.636719 C 159.378906 157.460938 159.378906 157.238281 159.511719 157.105469 L 176.128906 143.628906 C 176.441406 143.40625 176.484375 142.917969 176.21875 142.5625 C 175.953125 142.207031 175.464844 142.074219 175.152344 142.339844 L 158.488281 155.859375 C 158.355469 155.992188 158.089844 155.949219 157.957031 155.769531 L 157.691406 155.414062 C 157.554688 155.238281 157.554688 155.015625 157.691406 154.878906 L 174.308594 141.40625 C 174.617188 141.183594 174.664062 140.695312 174.398438 140.339844 C 174.128906 139.984375 173.640625 139.847656 173.332031 140.117188 L 156.667969 153.636719 C 156.535156 153.769531 156.269531 153.722656 156.132812 153.546875 L 155.867188 153.191406 C 155.734375 153.011719 155.734375 152.789062 155.867188 152.65625 L 172.53125 139.183594 C 172.839844 138.960938 172.886719 138.472656 172.621094 138.113281 C 172.351562 137.757812 171.863281 137.625 171.554688 137.894531 L 154.890625 151.410156 C 154.757812 151.546875 154.492188 151.5 154.355469 151.324219 L 154.089844 150.96875 C 153.957031 150.789062 153.957031 150.566406 154.089844 150.433594 L 170.753906 136.957031 C 171.0625 136.738281 171.109375 136.246094 170.84375 135.890625 C 170.574219 135.535156 170.085938 135.402344 169.777344 135.667969 L 153.070312 149.1875 C 152.933594 149.320312 152.667969 149.277344 152.535156 149.097656 L 152.269531 148.742188 C 152.136719 148.566406 152.136719 148.34375 152.269531 148.210938 L 168.929688 134.734375 C 169.242188 134.511719 169.285156 134.023438 169.019531 133.667969 C 168.753906 133.3125 168.265625 133.179688 167.953125 133.445312 L 151.246094 146.964844 C 151.113281 147.097656 150.847656 147.054688 150.714844 146.875 L 150.449219 146.519531 C 150.3125 146.34375 150.3125 146.121094 150.449219 145.988281 L 167.152344 132.46875 C 167.464844 132.246094 167.464844 131.757812 167.199219 131.398438 C 166.933594 131.042969 166.441406 130.957031 166.132812 131.222656 L 149.425781 144.742188 C 149.292969 144.875 149.027344 144.832031 148.890625 144.652344 L 148.625 144.296875 C 148.492188 144.117188 148.492188 143.894531 148.625 143.761719 L 165.332031 130.242188 C 165.644531 130.023438 165.644531 129.53125 165.375 129.175781 C 165.109375 128.820312 164.621094 128.730469 164.308594 129 L 147.558594 142.519531 C 147.425781 142.652344 147.160156 142.605469 147.027344 142.429688 L 146.757812 142.074219 C 146.625 141.894531 146.625 141.671875 146.757812 141.539062 L 163.464844 128.019531 C 163.777344 127.796875 163.820312 127.308594 163.554688 126.953125 C 163.289062 126.597656 162.800781 126.464844 162.488281 126.730469 L 145.78125 140.292969 C 145.648438 140.425781 145.382812 140.382812 145.25 140.207031 L 144.980469 139.847656 C 144.847656 139.671875 144.847656 139.449219 144.980469 139.316406 L 161.6875 125.796875 C 162 125.574219 162.042969 125.085938 161.777344 124.730469 C 161.511719 124.375 161.023438 124.242188 160.710938 124.507812 L 143.960938 138.070312 C 143.828125 138.203125 143.558594 138.160156 143.425781 137.980469 L 143.160156 137.625 C 143.027344 137.449219 143.027344 137.226562 143.160156 137.09375 L 159.867188 123.574219 C 160.179688 123.351562 160.222656 122.863281 159.957031 122.507812 C 159.6875 122.148438 159.199219 122.015625 158.890625 122.285156 L 142.136719 135.847656 C 142.003906 135.980469 141.738281 135.9375 141.605469 135.757812 L 141.339844 135.402344 C 141.207031 135.222656 141.207031 135.003906 141.339844 134.867188 L 158.046875 121.351562 C 158.355469 121.128906 158.402344 120.636719 158.132812 120.28125 C 157.867188 119.925781 157.378906 119.792969 157.066406 120.058594 L 140.316406 133.625 C 140.183594 133.757812 139.917969 133.710938 139.785156 133.535156 L 139.515625 133.179688 C 139.382812 133 139.382812 132.777344 139.515625 132.644531 L 156.222656 119.125 C 156.535156 118.902344 156.578125 118.414062 156.3125 118.058594 C 156.046875 117.703125 155.558594 117.570312 155.246094 117.835938 L 138.496094 131.398438 C 138.363281 131.535156 138.09375 131.488281 137.960938 131.3125 L 137.695312 130.957031 C 137.5625 130.777344 137.5625 130.554688 137.695312 130.421875 L 154.402344 116.859375 C 154.710938 116.636719 154.757812 116.148438 154.492188 115.789062 C 154.222656 115.433594 153.734375 115.300781 153.425781 115.570312 L 136.671875 129.132812 C 136.539062 129.265625 136.273438 129.222656 136.140625 129.042969 C 136.007812 128.867188 136.007812 128.644531 136.140625 128.507812 L 152.535156 115.210938 C 152.980469 114.855469 153.070312 114.144531 152.714844 113.613281 C 152.3125 113.035156 151.558594 112.855469 151.070312 113.167969 L 133.207031 125.441406 L 132.273438 126.195312 C 130.097656 127.976562 129.964844 131.488281 132.050781 134.023438 Z M 168.308594 178.851562 " fill-opacity="1" fill-rule="nonzero"/><path fill="#000000" d="M 242.511719 226.433594 L 226.871094 239.109375 C 226.515625 239.417969 225.9375 239.285156 225.628906 238.886719 L 225.449219 238.664062 C 225.09375 238.261719 225.136719 237.683594 225.492188 237.375 L 240.601562 224.566406 C 241.222656 224.03125 241.488281 223.277344 241.179688 222.921875 C 240.867188 222.519531 240.113281 222.652344 239.445312 223.144531 L 223.761719 235.285156 C 223.40625 235.550781 222.828125 235.460938 222.515625 235.0625 C 222.160156 234.660156 222.207031 234.082031 222.5625 233.773438 L 237.667969 220.964844 C 238.289062 220.429688 238.558594 219.675781 238.246094 219.320312 C 237.933594 218.917969 237.179688 219.050781 236.511719 219.542969 L 220.828125 231.683594 C 220.472656 231.949219 219.894531 231.859375 219.585938 231.460938 C 219.230469 231.058594 219.273438 230.480469 219.628906 230.167969 L 234.78125 217.363281 C 235.402344 216.828125 235.667969 216.074219 235.359375 215.714844 C 235.046875 215.316406 234.292969 215.449219 233.625 215.9375 L 217.941406 228.078125 C 217.585938 228.347656 217.007812 228.257812 216.695312 227.855469 C 216.339844 227.457031 216.386719 226.878906 216.742188 226.566406 L 231.890625 213.714844 C 232.515625 213.183594 232.78125 212.425781 232.46875 212.070312 C 232.160156 211.667969 231.402344 211.804688 230.738281 212.292969 L 215.007812 224.433594 C 214.652344 224.699219 214.074219 224.609375 213.765625 224.210938 C 213.410156 223.808594 213.453125 223.230469 213.808594 222.921875 L 228.960938 210.070312 C 229.582031 209.535156 229.847656 208.777344 229.539062 208.421875 C 229.226562 208.023438 228.472656 208.15625 227.804688 208.644531 L 211.988281 220.832031 C 211.632812 221.097656 211.054688 221.007812 210.742188 220.609375 C 210.386719 220.207031 210.429688 219.628906 210.785156 219.320312 L 225.9375 206.464844 C 226.558594 205.933594 226.828125 205.175781 226.515625 204.820312 C 226.203125 204.421875 225.449219 204.554688 224.78125 205.042969 L 209.054688 217.230469 C 208.699219 217.496094 208.121094 217.40625 207.808594 217.007812 C 207.453125 216.605469 207.5 216.027344 207.855469 215.714844 L 223.050781 202.863281 C 223.671875 202.332031 223.9375 201.574219 223.628906 201.21875 C 223.316406 200.820312 222.5625 200.953125 221.894531 201.441406 L 206.121094 213.625 C 205.765625 213.894531 205.1875 213.804688 204.878906 213.402344 C 204.523438 213.003906 204.566406 212.425781 204.921875 212.113281 L 220.117188 199.21875 C 220.738281 198.683594 221.007812 197.929688 220.695312 197.574219 C 220.382812 197.171875 219.628906 197.304688 218.960938 197.796875 L 203.1875 209.980469 C 202.832031 210.246094 202.253906 210.15625 201.945312 209.757812 C 201.589844 209.355469 201.632812 208.777344 201.988281 208.46875 L 217.183594 195.570312 C 217.808594 195.039062 218.074219 194.28125 217.761719 193.925781 C 217.453125 193.527344 216.695312 193.660156 216.03125 194.148438 L 200.210938 206.378906 C 199.855469 206.644531 199.277344 206.554688 198.96875 206.15625 C 198.613281 205.753906 198.65625 205.175781 199.011719 204.867188 L 214.253906 191.96875 C 214.875 191.4375 215.140625 190.679688 214.832031 190.324219 C 214.519531 189.921875 213.765625 190.058594 213.097656 190.546875 L 197.324219 202.777344 C 196.96875 203.042969 196.390625 202.953125 196.078125 202.554688 C 195.722656 202.152344 195.769531 201.574219 196.125 201.265625 L 211.363281 188.367188 C 211.988281 187.832031 212.253906 187.078125 211.941406 186.722656 C 211.632812 186.320312 210.875 186.453125 210.210938 186.945312 L 194.390625 199.171875 C 194.035156 199.441406 193.457031 199.351562 193.148438 198.953125 C 192.792969 198.550781 192.835938 197.972656 193.191406 197.660156 L 208.433594 184.71875 C 209.054688 184.1875 209.320312 183.429688 209.007812 183.074219 C 208.699219 182.675781 207.941406 182.808594 207.277344 183.296875 L 191.457031 195.527344 C 191.101562 195.792969 190.527344 195.703125 190.214844 195.304688 C 189.859375 194.90625 189.902344 194.328125 190.257812 194.015625 L 195.636719 189.480469 L 191.8125 192.234375 L 191.769531 192.28125 C 191.457031 192.457031 191.191406 192.636719 190.96875 192.769531 L 189.503906 193.570312 C 188.835938 195.082031 188.347656 196.148438 188.125 196.726562 C 187.328125 198.640625 186.882812 200.152344 186.660156 201.351562 L 221.140625 244 C 222.5625 245.777344 224.871094 246.179688 226.382812 245.066406 L 228.871094 242.753906 L 244.378906 228.347656 C 244.820312 227.945312 244.777344 227.191406 244.289062 226.65625 C 243.667969 226.121094 242.957031 226.078125 242.511719 226.433594 Z M 242.511719 226.433594 " fill-opacity="1" fill-rule="nonzero"/></svg>