<svg xmlns="http://www.w3.org/2000/svg" xmlns:xlink="http://www.w3.org/1999/xlink" width="500" zoomAndPan="magnify" viewBox="0 0 375 374.999991" height="500" preserveAspectRatio="xMidYMid meet" version="1.0"><defs><clipPath id="361c30eb4b"><path d="M 137.25 115.71875 L 237.75 115.71875 L 237.75 258.96875 L 137.25 258.96875 Z M 137.25 115.71875 " clip-rule="nonzero"/></clipPath></defs><g clip-path="url(#361c30eb4b)"><path fill="#000000" d="M 206.75 130.828125 C 208.496094 130.128906 211.984375 130.324219 212.746094 131.148438 C 210.714844 131.121094 208.726562 131.117188 206.75 130.828125 Z M 191.453125 206.730469 C 191.679688 207.1875 191.71875 207.683594 191.769531 208.175781 C 191.917969 209.597656 192.03125 211.019531 192.222656 212.433594 C 192.472656 214.320312 192.796875 216.195312 193.347656 218.023438 C 193.488281 218.5 193.636719 218.980469 193.765625 219.460938 C 193.828125 219.703125 193.835938 219.984375 193.5625 220.078125 C 193.363281 220.144531 193.054688 220.160156 192.894531 220.050781 C 192.128906 219.546875 191.445312 218.945312 191.167969 218.027344 C 191.039062 217.597656 190.945312 217.148438 190.890625 216.703125 C 190.628906 214.5 190.578125 212.289062 190.71875 210.074219 C 190.773438 209.195312 190.851562 208.320312 190.945312 207.445312 C 190.976562 207.15625 190.996094 206.808594 191.453125 206.730469 Z M 183.511719 129.066406 C 180.3125 130.15625 177.28125 131.554688 174.359375 133.191406 C 171.4375 134.832031 168.707031 136.757812 166.097656 138.855469 C 163.496094 140.949219 161.117188 143.269531 158.734375 145.621094 C 158.683594 145.476562 158.664062 145.351562 158.710938 145.265625 C 158.941406 144.847656 159.164062 144.425781 159.4375 144.039062 C 160.5625 142.457031 161.921875 141.09375 163.371094 139.804688 C 165.535156 137.882812 167.867188 136.175781 170.300781 134.621094 C 172.191406 133.421875 174.175781 132.359375 176.15625 131.3125 C 177.890625 130.402344 179.699219 129.644531 181.621094 129.191406 C 182.238281 129.046875 182.859375 128.886719 183.511719 129.066406 Z M 219.746094 197.6875 C 219.804688 197.699219 219.863281 197.707031 219.925781 197.71875 C 219.90625 197.945312 219.910156 198.175781 219.867188 198.398438 C 219.582031 199.769531 219.367188 201.164062 218.972656 202.507812 C 218.199219 205.15625 217.375 207.789062 216.476562 210.398438 C 215.769531 212.445312 214.9375 214.449219 214.128906 216.460938 C 213.375 218.335938 212.511719 220.164062 211.460938 221.898438 C 211.386719 222.027344 211.253906 222.117188 211.03125 222.339844 C 211.082031 222.042969 211.089844 221.90625 211.132812 221.777344 C 211.773438 219.707031 212.34375 217.617188 213.078125 215.582031 C 214.242188 212.363281 215.535156 209.191406 216.730469 205.984375 C 217.691406 203.398438 218.59375 200.792969 219.527344 198.195312 C 219.589844 198.023438 219.671875 197.855469 219.746094 197.6875 Z M 177.503906 169.042969 C 177.574219 168.917969 177.597656 168.816406 177.664062 168.773438 C 177.984375 168.566406 178.304688 168.359375 178.640625 168.179688 C 179.960938 167.457031 181.25 166.671875 182.613281 166.042969 C 184.300781 165.265625 186.046875 164.613281 187.773438 163.921875 C 190.144531 162.976562 192.507812 162.007812 194.898438 161.117188 C 199.273438 159.484375 203.496094 157.53125 207.507812 155.144531 C 207.960938 154.878906 208.410156 154.605469 208.863281 154.34375 C 209.101562 154.207031 209.375 154.09375 209.558594 154.394531 C 209.726562 154.671875 209.484375 154.8125 209.285156 154.953125 C 208.816406 155.28125 208.351562 155.621094 207.882812 155.949219 C 206.003906 157.269531 204.035156 158.4375 201.984375 159.472656 C 198.242188 161.359375 194.296875 162.757812 190.390625 164.246094 C 187.777344 165.238281 185.164062 166.234375 182.5625 167.25 C 181.339844 167.730469 180.144531 168.28125 178.925781 168.769531 C 178.5 168.941406 178.058594 169.136719 177.503906 169.042969 Z M 156.074219 189.839844 C 156.035156 190.867188 155.972656 191.789062 155.96875 192.710938 C 155.964844 193.769531 156.238281 194.785156 156.566406 195.78125 C 156.640625 195.996094 156.777344 196.230469 156.957031 196.351562 C 157.238281 196.542969 157.605469 196.304688 157.757812 195.875 C 158.011719 195.136719 158.246094 194.386719 158.515625 193.652344 C 159.25 191.636719 160.398438 189.863281 161.8125 188.261719 C 163.460938 186.390625 165.335938 184.765625 167.453125 183.429688 C 169.171875 182.351562 170.914062 181.308594 172.636719 180.238281 C 173.242188 179.859375 173.800781 179.394531 174.527344 179.25 C 174.753906 179.207031 174.976562 179.179688 175.285156 179.265625 C 175.128906 179.492188 174.980469 179.730469 174.808594 179.945312 C 172.8125 182.480469 171.0625 185.179688 169.539062 188.015625 C 167.902344 191.066406 166.5625 194.242188 165.546875 197.550781 C 164.785156 200.03125 164.1875 202.554688 163.785156 205.117188 C 163.195312 208.914062 162.910156 212.730469 163.039062 216.570312 C 163.132812 219.285156 163.398438 221.984375 163.925781 224.652344 C 164.347656 226.796875 164.789062 228.941406 165.351562 231.050781 C 165.746094 232.535156 166.34375 233.96875 166.875 235.417969 C 167.132812 236.125 167.445312 236.808594 167.75 237.546875 C 168.273438 237.199219 168.234375 236.742188 168.179688 236.304688 C 168.078125 235.503906 167.929688 234.707031 167.816406 233.90625 C 167.546875 232.023438 167.257812 230.144531 167.03125 228.253906 C 166.730469 225.726562 166.550781 223.1875 166.539062 220.636719 C 166.523438 217.011719 166.722656 213.402344 167.269531 209.820312 C 167.683594 207.09375 168.273438 204.402344 169.074219 201.753906 C 170.246094 197.882812 171.902344 194.234375 174.0625 190.8125 C 176.042969 187.671875 178.445312 184.871094 181.148438 182.320312 C 183.582031 180.023438 186.148438 177.882812 188.832031 175.882812 C 192.226562 173.359375 195.660156 170.882812 199.332031 168.769531 C 202.1875 167.125 205.097656 165.574219 207.964844 163.945312 C 209.75 162.933594 211.589844 162.003906 213.230469 160.753906 C 214.972656 159.429688 216.28125 157.8125 216.894531 155.695312 C 216.921875 155.601562 216.921875 155.492188 216.976562 155.421875 C 217.074219 155.300781 217.230469 155.097656 217.308594 155.121094 C 217.457031 155.164062 217.640625 155.316406 217.683594 155.460938 C 218 156.523438 218.109375 157.613281 217.945312 158.710938 C 217.675781 160.5 217.355469 162.28125 217.089844 164.070312 C 216.773438 166.191406 216.480469 168.3125 216.832031 170.464844 C 216.992188 171.441406 217.367188 172.335938 217.78125 173.222656 C 218.289062 174.296875 218.808594 175.371094 219.289062 176.457031 C 220.019531 178.109375 219.585938 179.046875 217.871094 179.667969 C 217.039062 179.964844 216.21875 180.296875 215.410156 180.652344 C 214.734375 180.949219 214.546875 181.296875 214.683594 182.015625 C 214.769531 182.457031 214.933594 182.882812 215.085938 183.308594 C 215.59375 184.71875 215.410156 185.21875 214.09375 185.910156 C 213.796875 186.066406 213.484375 186.195312 213.175781 186.320312 C 212.367188 186.648438 212.191406 187.085938 212.542969 187.898438 C 212.695312 188.246094 212.855469 188.597656 212.949219 188.960938 C 213.097656 189.542969 212.992188 189.742188 212.414062 189.933594 C 211.960938 190.082031 211.488281 190.183594 211.015625 190.25 C 209.933594 190.402344 209.265625 190.972656 209.089844 192.058594 C 209.011719 192.527344 208.960938 193 208.9375 193.476562 C 208.875 194.621094 208.707031 195.746094 208.339844 196.835938 C 208.003906 197.828125 207.347656 198.488281 206.351562 198.84375 C 205.285156 199.222656 204.195312 199.273438 203.09375 199.078125 C 198.800781 198.3125 194.707031 196.949219 190.8125 195 C 190.363281 194.777344 189.890625 194.601562 189.410156 194.453125 C 188.5 194.175781 188.011719 194.425781 187.636719 195.289062 C 187.238281 196.203125 187.15625 197.175781 187.054688 198.144531 C 186.855469 200.0625 186.671875 201.980469 186.527344 203.902344 C 186.320312 206.683594 186.25 209.464844 186.5625 212.242188 C 186.90625 215.289062 187.890625 218.074219 190.058594 220.351562 C 191.15625 221.503906 192.46875 222.316406 194.066406 222.558594 C 194.9375 222.691406 195.503906 223.148438 195.871094 223.898438 C 196.289062 224.753906 196.683594 225.617188 197.105469 226.46875 C 198.632812 229.554688 200.507812 232.40625 202.757812 235.023438 C 204.210938 236.71875 205.84375 238.199219 207.777344 239.339844 C 208.105469 239.535156 208.417969 239.757812 208.761719 239.925781 C 209.375 240.226562 209.664062 240.75 209.832031 241.363281 C 210.417969 243.519531 211.148438 245.621094 212.066406 247.660156 C 213.355469 250.523438 214.910156 253.242188 216.996094 255.613281 C 217.984375 256.734375 219.128906 257.71875 220.210938 258.753906 C 220.339844 258.875 220.546875 258.96875 220.722656 258.972656 C 220.882812 258.972656 221.097656 258.878906 221.195312 258.753906 C 221.265625 258.660156 221.199219 258.449219 221.160156 258.296875 C 221.136719 258.214844 221.046875 258.144531 220.980469 258.078125 C 219.679688 256.742188 218.546875 255.285156 217.609375 253.671875 C 217.050781 252.707031 216.390625 251.796875 215.839844 250.828125 C 215.484375 250.210938 215.242188 249.53125 214.953125 248.878906 C 214.042969 246.84375 213.445312 244.726562 213.167969 242.519531 C 212.925781 240.558594 213.058594 238.621094 213.46875 236.699219 C 214.058594 233.917969 215.089844 231.28125 216.257812 228.699219 C 217.902344 225.054688 219.90625 221.589844 221.796875 218.070312 C 223.777344 214.375 225.742188 210.671875 227.414062 206.828125 C 228.863281 203.507812 230.105469 200.113281 230.976562 196.59375 C 232.148438 191.882812 232.449219 187.101562 232.011719 182.273438 C 231.796875 179.878906 231.394531 177.503906 230.734375 175.1875 C 230.019531 172.691406 229.097656 170.269531 227.894531 167.960938 C 227.65625 167.5 227.496094 166.996094 227.324219 166.503906 C 227.28125 166.386719 227.335938 166.234375 227.355469 165.949219 C 227.949219 166.425781 228.355469 166.910156 228.632812 167.46875 C 229.375 168.960938 230.109375 170.460938 230.777344 171.988281 C 231.6875 174.0625 232.371094 176.214844 232.9375 178.40625 C 233.464844 180.460938 233.835938 182.542969 234.078125 184.652344 C 234.386719 187.355469 234.496094 190.070312 234.1875 192.777344 C 233.980469 194.59375 233.6875 196.410156 233.292969 198.195312 C 232.761719 200.585938 232.148438 202.960938 231.46875 205.3125 C 230.773438 207.714844 229.761719 210.003906 228.675781 212.257812 C 227.917969 213.820312 227.105469 215.359375 226.3125 216.90625 C 226.148438 217.226562 226.070312 217.554688 226.210938 218.042969 C 226.554688 217.644531 226.839844 217.339844 227.097656 217.011719 C 228.316406 215.480469 229.367188 213.839844 230.332031 212.132812 C 231.527344 210.011719 232.617188 207.84375 233.550781 205.601562 C 234.757812 202.695312 235.777344 199.726562 236.378906 196.632812 C 236.726562 194.835938 237.117188 193.039062 237.332031 191.226562 C 237.5625 189.289062 237.6875 187.335938 237.714844 185.386719 C 237.742188 183.320312 237.683594 181.242188 237.507812 179.183594 C 237.167969 175.1875 236.332031 171.277344 235.238281 167.421875 C 234.191406 163.730469 232.847656 160.148438 231.265625 156.648438 C 229.652344 153.085938 227.804688 149.652344 225.808594 146.292969 C 224.808594 144.613281 223.761719 142.960938 222.835938 141.242188 C 222.460938 140.550781 222.230469 139.734375 222.121094 138.949219 C 221.839844 136.914062 221.382812 134.933594 220.679688 133 C 220.1875 131.640625 219.519531 130.390625 218.59375 129.28125 C 217.707031 128.222656 216.605469 127.445312 215.386719 126.800781 C 213.484375 125.796875 211.59375 124.769531 209.71875 123.722656 C 206.769531 122.078125 203.722656 120.648438 200.570312 119.429688 C 197.867188 118.382812 195.097656 117.523438 192.265625 116.921875 C 188.335938 116.09375 184.367188 115.722656 180.335938 115.941406 C 176.964844 116.121094 173.664062 116.644531 170.433594 117.585938 C 167.699219 118.382812 165.070312 119.46875 162.53125 120.773438 C 160.585938 121.769531 158.753906 122.917969 157.058594 124.296875 C 154.878906 126.074219 152.992188 128.121094 151.324219 130.375 C 149.410156 132.953125 147.828125 135.71875 146.636719 138.6875 C 145.507812 141.503906 144.714844 144.417969 144.433594 147.453125 C 144.34375 148.421875 144.277344 149.398438 144.171875 150.367188 C 144.015625 151.742188 143.546875 152.980469 142.617188 154.054688 C 140.078125 156.984375 139.453125 160.433594 140.011719 164.148438 C 140.316406 166.1875 141.0625 168.089844 141.960938 169.945312 C 143.539062 173.199219 145.621094 176.121094 147.867188 178.941406 C 148.5625 179.816406 149.261719 180.703125 149.847656 181.652344 C 151.300781 183.996094 151.246094 186.40625 150.078125 188.867188 C 149.242188 190.621094 148.039062 192.085938 146.660156 193.417969 C 144.46875 195.535156 142.066406 197.371094 139.296875 198.699219 C 138.804688 198.933594 138.304688 199.167969 137.796875 199.378906 C 137.542969 199.488281 137.269531 199.574219 137.375 199.917969 C 137.492188 200.300781 137.800781 200.226562 138.085938 200.152344 C 138.921875 199.945312 139.761719 199.753906 140.589844 199.519531 C 143.339844 198.746094 145.960938 197.65625 148.429688 196.21875 C 150.621094 194.945312 152.558594 193.371094 154.234375 191.476562 C 154.675781 190.976562 155.183594 190.539062 155.671875 190.082031 C 155.769531 189.988281 155.902344 189.9375 156.074219 189.839844 " fill-opacity="1" fill-rule="nonzero"/></g></svg>